<svg width="23" height="22" viewBox="0 0 23 22" fill="none" xmlns="http://www.w3.org/2000/svg">
<g clip-path="url(#clip0_3_162)">
<path d="M0.62162 0.647095V2.71768H2.73513L6.02973 17.6647C6.02973 17.6647 6.9 16.5 8.01892 16.4353L4.97297 2.97651C4.97297 2.97651 4.84865 0.711801 2.54865 0.711801H0.62162V0.647095Z" stroke="white" stroke-miterlimit="10" stroke-linecap="round" stroke-linejoin="round"/>
<path d="M8.20541 21.5471C9.54432 21.5471 10.6297 20.4172 10.6297 19.0235C10.6297 17.6298 9.54432 16.5 8.20541 16.5C6.8665 16.5 5.7811 17.6298 5.7811 19.0235C5.7811 20.4172 6.8665 21.5471 8.20541 21.5471Z" stroke="white" stroke-miterlimit="10" stroke-linecap="round" stroke-linejoin="round"/>
<path d="M16.4108 21.5471C17.7497 21.5471 18.8351 20.4172 18.8351 19.0235C18.8351 17.6298 17.7497 16.5 16.4108 16.5C15.0719 16.5 13.9865 17.6298 13.9865 19.0235C13.9865 20.4172 15.0719 21.5471 16.4108 21.5471Z" stroke="white" stroke-miterlimit="10" stroke-linecap="round" stroke-linejoin="round"/>
<path d="M8.2054 19.4764C8.44572 19.4764 8.64053 19.2737 8.64053 19.0235C8.64053 18.7733 8.44572 18.5706 8.2054 18.5706C7.96508 18.5706 7.77026 18.7733 7.77026 19.0235C7.77026 19.2737 7.96508 19.4764 8.2054 19.4764Z" fill="white"/>
<path d="M16.4108 19.4764C16.6511 19.4764 16.8459 19.2737 16.8459 19.0235C16.8459 18.7733 16.6511 18.5706 16.4108 18.5706C16.1705 18.5706 15.9757 18.7733 15.9757 19.0235C15.9757 19.2737 16.1705 19.4764 16.4108 19.4764Z" fill="white"/>
<path d="M13.6135 3.81763C13.8538 3.81763 14.0486 3.61484 14.0486 3.36468C14.0486 3.11453 13.8538 2.91174 13.6135 2.91174C13.3732 2.91174 13.1784 3.11453 13.1784 3.36468C13.1784 3.61484 13.3732 3.81763 13.6135 3.81763Z" fill="white"/>
<path d="M5.03514 3.36462H11.6865" stroke="white" stroke-miterlimit="10" stroke-linecap="round" stroke-linejoin="round"/>
<path d="M15.4162 3.36465H21.1351C21.1351 3.36465 22.3784 3.17053 22.5027 4.27053C22.5027 4.27053 22.8757 5.69406 20.7 5.43524H5.47028" stroke="white" stroke-miterlimit="10" stroke-linecap="round" stroke-linejoin="round"/>
<path d="M7.52162 14.4293H17.6541C17.6541 14.4293 19.5189 14.6881 19.9541 12.4234L21.0108 5.43518" stroke="white" stroke-miterlimit="10" stroke-linecap="round"/>
<path d="M9.26216 7.89417L9.82162 11.9706" stroke="white" stroke-miterlimit="10" stroke-linecap="round" stroke-linejoin="round"/>
<path d="M12.2459 7.89417V11.9706" stroke="white" stroke-miterlimit="10" stroke-linecap="round" stroke-linejoin="round"/>
<path d="M17.7784 7.89417L17.2189 11.9706" stroke="white" stroke-miterlimit="10" stroke-linecap="round" stroke-linejoin="round"/>
<path d="M14.8568 7.89417V11.9706" stroke="white" stroke-miterlimit="10" stroke-linecap="round" stroke-linejoin="round"/>
<path d="M8.2054 16.5H16.4108" stroke="white" stroke-miterlimit="10" stroke-linecap="round" stroke-linejoin="round"/>
<path d="M10.6297 18.5706H14.0486" stroke="white" stroke-miterlimit="10" stroke-linecap="round" stroke-linejoin="round"/>
</g>
<defs>
<clipPath id="clip0_3_162">
<rect width="23" height="22" fill="white"/>
</clipPath>
</defs>
</svg>
