<svg width="25" height="25" viewBox="0 0 25 25" fill="none" xmlns="http://www.w3.org/2000/svg">
<path d="M19.973 1H4.74048V5.81544H19.973V1Z" stroke="white" stroke-miterlimit="10" stroke-linecap="round" stroke-linejoin="round"/>
<path d="M12.6024 10.8274H23.9039C23.9039 10.8274 24.1988 6.30679 20.6609 6.01196H12.7989H12.111H4.24907C0.711194 6.30679 1.00602 10.8274 1.00602 10.8274H12.3076H12.6024Z" stroke="white" stroke-miterlimit="10" stroke-linecap="round" stroke-linejoin="round"/>
<path d="M22.0368 10.8274H2.67673V23.7996H22.0368V10.8274Z" stroke="white" stroke-miterlimit="10" stroke-linecap="round" stroke-linejoin="round"/>
<path d="M2.67673 12.3999H22.0368" stroke="white" stroke-miterlimit="10" stroke-linecap="round" stroke-linejoin="round"/>
<path d="M9.85075 14.3655H4.74048V23.7998H9.85075V14.3655Z" stroke="white" stroke-miterlimit="10" stroke-linecap="round" stroke-linejoin="round"/>
<path d="M18.3023 14.3655H13.0938V19.574H18.3023V14.3655Z" stroke="white" stroke-miterlimit="10" stroke-linecap="round" stroke-linejoin="round"/>
<path d="M2.67673 21.8342H4.74049" stroke="white" stroke-miterlimit="10" stroke-linecap="round" stroke-linejoin="round"/>
<path d="M9.94901 21.8342H22.0368" stroke="white" stroke-miterlimit="10" stroke-linecap="round" stroke-linejoin="round"/>
<path d="M22.0367 23.7998H23.8057" stroke="white" stroke-miterlimit="10" stroke-linecap="round" stroke-linejoin="round"/>
<path d="M6.41114 6.01196C6.41114 6.01196 4.83875 6.89643 4.74048 10.4343" stroke="white" stroke-miterlimit="10" stroke-linecap="round" stroke-linejoin="round"/>
<path d="M10.1455 6.01196C10.1455 6.01196 8.3766 7.3878 8.86797 10.7291" stroke="white" stroke-miterlimit="10" stroke-linecap="round" stroke-linejoin="round"/>
<path d="M18.3023 6.01196C18.3023 6.01196 19.973 6.89643 20.1695 10.4343" stroke="white" stroke-miterlimit="10" stroke-linecap="round" stroke-linejoin="round"/>
<path d="M14.961 6.01196C14.961 6.01196 16.3369 7.3878 15.9438 10.7291" stroke="white" stroke-miterlimit="10" stroke-linecap="round" stroke-linejoin="round"/>
<path d="M12.5042 6.40503V10.8274" stroke="white" stroke-miterlimit="10" stroke-linecap="round" stroke-linejoin="round"/>
<path d="M8.00678 2.03727C8.00678 2.10085 8.02879 2.15587 8.07281 2.20234C8.11927 2.24635 8.17674 2.28426 8.24521 2.31605C8.31368 2.34784 8.4115 2.38574 8.53866 2.42976L8.7184 2.49212C8.93848 2.56792 9.11211 2.68653 9.23927 2.84792C9.36887 3.00687 9.43368 3.2074 9.43368 3.44949C9.43368 3.77228 9.33097 4.01682 9.12556 4.18311C8.92259 4.35184 8.64381 4.43621 8.28923 4.43621C8.11561 4.43621 7.94198 4.4142 7.76836 4.37018C7.59474 4.32861 7.46024 4.26992 7.36487 4.19412C7.3184 4.15743 7.28172 4.11342 7.25482 4.06206C7.22792 4.00827 7.21448 3.95324 7.21448 3.897C7.21448 3.83342 7.23282 3.77228 7.2695 3.71359C7.2964 3.67202 7.33185 3.64023 7.37587 3.61822C7.42233 3.59377 7.47002 3.58154 7.51893 3.58154C7.55561 3.58154 7.58862 3.58643 7.61797 3.59622C7.64976 3.606 7.68032 3.61945 7.70967 3.63656C7.73901 3.65124 7.76591 3.66469 7.79037 3.67691C7.94687 3.75028 8.10827 3.78696 8.27456 3.78696C8.40172 3.78696 8.49953 3.75883 8.568 3.70259C8.63892 3.6439 8.67438 3.56687 8.67438 3.4715C8.67438 3.40058 8.6487 3.34067 8.59735 3.29176C8.546 3.24041 8.48608 3.20006 8.41761 3.17072C8.34914 3.13893 8.24154 3.09613 8.09482 3.04233L7.91875 2.97631C7.70356 2.89561 7.54094 2.77334 7.43089 2.6095C7.3233 2.44565 7.2695 2.26469 7.2695 2.06662C7.2695 1.96636 7.28172 1.87221 7.30618 1.78417C7.36242 1.56409 7.48347 1.39536 7.66932 1.27798C7.85762 1.1606 8.08137 1.10191 8.34058 1.10191C8.63648 1.10191 8.8749 1.15082 9.05586 1.24863C9.12678 1.28776 9.18547 1.34033 9.23193 1.40636C9.27839 1.47239 9.30162 1.54086 9.30162 1.61177C9.30162 1.64356 9.29673 1.67291 9.28695 1.69981C9.26494 1.77072 9.22582 1.8233 9.16957 1.85754C9.11333 1.89177 9.0473 1.90889 8.9715 1.90889C8.9446 1.90889 8.91403 1.904 8.87979 1.89422C8.84556 1.88444 8.81988 1.87343 8.80276 1.8612C8.69272 1.78784 8.54722 1.75116 8.36626 1.75116C8.266 1.75116 8.18041 1.77439 8.10949 1.82085C8.04102 1.86487 8.00678 1.93701 8.00678 2.03727ZM10.4627 3.05334V4.37752H9.70706V1.47605C9.70706 1.35867 9.74374 1.26697 9.81711 1.20095C9.89047 1.13492 9.97973 1.10191 10.0849 1.10191C10.19 1.10191 10.2793 1.13492 10.3526 1.20095C10.426 1.26697 10.4627 1.35867 10.4627 1.47605V2.41509H11.3907V1.47605C11.3907 1.35867 11.4274 1.26697 11.5008 1.20095C11.5741 1.13492 11.6634 1.10191 11.7685 1.10191C11.8737 1.10191 11.9629 1.13492 12.0363 1.20095C12.1097 1.26697 12.1464 1.35867 12.1464 1.47605V4.37752H11.3907V3.05334H10.4627ZM12.4963 2.22068C12.4963 1.95657 12.5574 1.74138 12.6797 1.57509C12.8019 1.40636 12.956 1.28531 13.1418 1.21195C13.3277 1.13859 13.5221 1.10191 13.7251 1.10191C13.9231 1.10191 14.1151 1.13859 14.301 1.21195C14.4893 1.28531 14.6445 1.40636 14.7668 1.57509C14.8915 1.74138 14.9539 1.95657 14.9539 2.22068V3.31744C14.9539 3.58154 14.8915 3.79796 14.7668 3.96669C14.6445 4.13298 14.4893 4.25281 14.301 4.32617C14.1151 4.39953 13.9231 4.43621 13.7251 4.43621C13.527 4.43621 13.3338 4.39953 13.1455 4.32617C12.9597 4.25281 12.8044 4.13298 12.6797 3.96669C12.5574 3.79796 12.4963 3.58154 12.4963 3.31744V2.22068ZM14.2056 2.19867C14.2056 2.04461 14.1603 1.92845 14.0699 1.8502C13.9818 1.7695 13.8669 1.72915 13.7251 1.72915C13.5832 1.72915 13.4671 1.7695 13.3766 1.8502C13.2886 1.92845 13.2445 2.04461 13.2445 2.19867V3.33945C13.2445 3.48128 13.2898 3.59499 13.3803 3.68058C13.4732 3.76617 13.5881 3.80897 13.7251 3.80897C13.862 3.80897 13.9757 3.76617 14.0662 3.68058C14.1591 3.59499 14.2056 3.48128 14.2056 3.33945V2.19867ZM16.058 4.37752H15.3023V1.74016C15.3023 1.59588 15.3195 1.48217 15.3537 1.39902C15.3879 1.31588 15.4466 1.25597 15.5298 1.21929C15.6129 1.18016 15.7278 1.1606 15.8746 1.1606H16.4945C16.8393 1.1606 17.1119 1.24985 17.3125 1.42837C17.513 1.60444 17.6133 1.87588 17.6133 2.24269V2.36373C17.6133 2.73054 17.513 3.00321 17.3125 3.18172C17.1119 3.35779 16.8393 3.44582 16.4945 3.44582H16.058V4.37752ZM16.4578 2.80757C16.5874 2.80757 16.6864 2.766 16.7549 2.68286C16.8258 2.59971 16.8613 2.48723 16.8613 2.34539V2.26103C16.8613 2.11919 16.8258 2.00671 16.7549 1.92356C16.6864 1.84042 16.5874 1.79885 16.4578 1.79885H16.1644C16.1228 1.79885 16.0947 1.80618 16.08 1.82085C16.0653 1.83308 16.058 1.8612 16.058 1.90522V2.80757H16.4578Z" fill="white"/>
<path d="M7.88526 19.3773C8.15664 19.3773 8.37663 19.1573 8.37663 18.8859C8.37663 18.6145 8.15664 18.3945 7.88526 18.3945C7.61389 18.3945 7.39389 18.6145 7.39389 18.8859C7.39389 19.1573 7.61389 19.3773 7.88526 19.3773Z" fill="white"/>
</svg>
